# xmcd
#
# Track frame offsets:
#	150
#	21322
#	36262
#	56327
#	72835
#	91365
#	114870
#	136382
#	159762
#	180917
#	195830
#	215865
#	232360
#	250840
#	274327
#	295800
#	330567
#
# Disc length: 4419 seconds
#
# Revision: 2
# Processed by: cddbd v1.5.1PL0 Copyright (c) Steve Scherf et al.
# Submitted via: audiograbber 1.83.01
#
DISCID=f1114111
DTITLE=Various Artist - SC3289
DYEAR=1900
DGENRE=Karaoke
TTITLE0=Wills, Mark and Jamie O'Neal - I'm Not Gonna Do Anything Without You
TTITLE1=Emerson Drive - I Should Be Sleeping
TTITLE2=McGraw, Tim - Cowboy In Me, The
TTITLE3=Brooks, Garth and Trisha Yearwood - Squeeze Me In
TTITLE4=Dern, Daisy - Gettin' Back To You
TTITLE5=Nickel Creek - Lighthouse's Tale, The
TTITLE6=Dixie Chicks, The - Travelin' Soldier
TTITLE7=Jackson, Alan - Where Were You
TTITLE8=Wills, Mark and Jamie O'Neal/w vocals - I'm Not Gonna Do Anything Without
TTITLE8=You
TTITLE9=Emerson Drive/w vocals - I Should Be Sleeping
TTITLE10=McGraw, Tim/w vocals - Cowboy In Me, The
TTITLE11=Brooks, Garth and Trisha Yearwood/w vocals - Squeeze Me In
TTITLE12=Dern, Daisy/w vocals - Gettin' Back To You
TTITLE13=Nickel Creek/w vocals - Lighthouse's Tale, The
TTITLE14=Dixie Chicks, The/w vocals - Travelin' Soldier
TTITLE15=Jackson, Alan/w vocals - Where Were You
TTITLE16=N/A - Data Track
EXTD=
EXTT0=
EXTT1=
EXTT2=
EXTT3=
EXTT4=
EXTT5=
EXTT6=
EXTT7=
EXTT8=
EXTT9=
EXTT10=
EXTT11=
EXTT12=
EXTT13=
EXTT14=
EXTT15=
EXTT16=
PLAYORDER=
